<?xml version="1.0" encoding="utf-8" standalone="no"?>
<!DOCTYPE svg PUBLIC "-//W3C//DTD SVG 1.1//EN"
  "http://www.w3.org/Graphics/SVG/1.1/DTD/svg11.dtd">
<svg xmlns:xlink="http://www.w3.org/1999/xlink" width="864pt" height="360pt" viewBox="0 0 864 360" xmlns="http://www.w3.org/2000/svg" version="1.1">
 <metadata>
  <rdf:RDF xmlns:dc="http://purl.org/dc/elements/1.1/" xmlns:cc="http://creativecommons.org/ns#" xmlns:rdf="http://www.w3.org/1999/02/22-rdf-syntax-ns#">
   <cc:Work>
    <dc:type rdf:resource="http://purl.org/dc/dcmitype/StillImage"/>
    <dc:date>2023-03-30T21:38:17.834585</dc:date>
    <dc:format>image/svg+xml</dc:format>
    <dc:creator>
     <cc:Agent>
      <dc:title>Matplotlib v3.5.3, https://matplotlib.org/</dc:title>
     </cc:Agent>
    </dc:creator>
   </cc:Work>
  </rdf:RDF>
 </metadata>
 <defs>
  <style type="text/css">*{stroke-linejoin: round; stroke-linecap: butt}</style>
 </defs>
 <g id="figure_1">
  <g id="patch_1">
   <path d="M 0 360 
L 864 360 
L 864 0 
L 0 0 
z
" style="fill: #ffffff"/>
  </g>
  <g id="axes_1">
   <g id="patch_2">
    <path d="M 108 324 
L 777.6 324 
L 777.6 36 
L 108 36 
z
" style="fill: #ffffff"/>
   </g>
   <g id="PathCollection_1">
    <defs>
     <path id="m9eb3412cbe" d="M 0 2.236068 
C 0.593012 2.236068 1.161816 2.000462 1.581139 1.581139 
C 2.000462 1.161816 2.236068 0.593012 2.236068 0 
C 2.236068 -0.593012 2.000462 -1.161816 1.581139 -1.581139 
C 1.161816 -2.000462 0.593012 -2.236068 0 -2.236068 
C -0.593012 -2.236068 -1.161816 -2.000462 -1.581139 -1.581139 
C -2.000462 -1.161816 -2.236068 -0.593012 -2.236068 0 
C -2.236068 0.593012 -2.000462 1.161816 -1.581139 1.581139 
C -1.161816 2.000462 -0.593012 2.236068 0 2.236068 
z
" style="stroke: #4c72b0; stroke-opacity: 0.5; stroke-width: 0.5"/>
    </defs>
    <g clip-path="url(#pbeac902ebf)">
     <use xlink:href="#m9eb3412cbe" x="253.67423" y="188.082818" style="fill: #4c72b0; fill-opacity: 0.5; stroke: #4c72b0; stroke-opacity: 0.5; stroke-width: 0.5"/>
     <use xlink:href="#m9eb3412cbe" x="299.314286" y="110.059316" style="fill: #4c72b0; fill-opacity: 0.5; stroke: #4c72b0; stroke-opacity: 0.5; stroke-width: 0.5"/>
     <use xlink:href="#m9eb3412cbe" x="437.414264" y="119.518199" style="fill: #4c72b0; fill-opacity: 0.5; stroke: #4c72b0; stroke-opacity: 0.5; stroke-width: 0.5"/>
     <use xlink:href="#m9eb3412cbe" x="521.120124" y="117.882859" style="fill: #4c72b0; fill-opacity: 0.5; stroke: #4c72b0; stroke-opacity: 0.5; stroke-width: 0.5"/>
     <use xlink:href="#m9eb3412cbe" x="572.307524" y="127.953601" style="fill: #4c72b0; fill-opacity: 0.5; stroke: #4c72b0; stroke-opacity: 0.5; stroke-width: 0.5"/>
     <use xlink:href="#m9eb3412cbe" x="493.643403" y="119.680932" style="fill: #4c72b0; fill-opacity: 0.5; stroke: #4c72b0; stroke-opacity: 0.5; stroke-width: 0.5"/>
     <use xlink:href="#m9eb3412cbe" x="539.283459" y="119.649916" style="fill: #4c72b0; fill-opacity: 0.5; stroke: #4c72b0; stroke-opacity: 0.5; stroke-width: 0.5"/>
     <use xlink:href="#m9eb3412cbe" x="512.548213" y="115.105531" style="fill: #4c72b0; fill-opacity: 0.5; stroke: #4c72b0; stroke-opacity: 0.5; stroke-width: 0.5"/>
     <use xlink:href="#m9eb3412cbe" x="406.37246" y="135.125501" style="fill: #4c72b0; fill-opacity: 0.5; stroke: #4c72b0; stroke-opacity: 0.5; stroke-width: 0.5"/>
     <use xlink:href="#m9eb3412cbe" x="220.919054" y="191.171013" style="fill: #4c72b0; fill-opacity: 0.5; stroke: #4c72b0; stroke-opacity: 0.5; stroke-width: 0.5"/>
     <use xlink:href="#m9eb3412cbe" x="297.287378" y="156.446743" style="fill: #4c72b0; fill-opacity: 0.5; stroke: #4c72b0; stroke-opacity: 0.5; stroke-width: 0.5"/>
     <use xlink:href="#m9eb3412cbe" x="296.928887" y="149.465146" style="fill: #4c72b0; fill-opacity: 0.5; stroke: #4c72b0; stroke-opacity: 0.5; stroke-width: 0.5"/>
     <use xlink:href="#m9eb3412cbe" x="519.424241" y="120.980625" style="fill: #4c72b0; fill-opacity: 0.5; stroke: #4c72b0; stroke-opacity: 0.5; stroke-width: 0.5"/>
     <use xlink:href="#m9eb3412cbe" x="394.971429" y="120.973504" style="fill: #4c72b0; fill-opacity: 0.5; stroke: #4c72b0; stroke-opacity: 0.5; stroke-width: 0.5"/>
     <use xlink:href="#m9eb3412cbe" x="466.209933" y="131.296185" style="fill: #4c72b0; fill-opacity: 0.5; stroke: #4c72b0; stroke-opacity: 0.5; stroke-width: 0.5"/>
     <use xlink:href="#m9eb3412cbe" x="179.238504" y="202.757357" style="fill: #4c72b0; fill-opacity: 0.5; stroke: #4c72b0; stroke-opacity: 0.5; stroke-width: 0.5"/>
     <use xlink:href="#m9eb3412cbe" x="459.805994" y="119.680932" style="fill: #4c72b0; fill-opacity: 0.5; stroke: #4c72b0; stroke-opacity: 0.5; stroke-width: 0.5"/>
     <use xlink:href="#m9eb3412cbe" x="155.206319" y="202.757357" style="fill: #4c72b0; fill-opacity: 0.5; stroke: #4c72b0; stroke-opacity: 0.5; stroke-width: 0.5"/>
     <use xlink:href="#m9eb3412cbe" x="299.314286" y="178.361799" style="fill: #4c72b0; fill-opacity: 0.5; stroke: #4c72b0; stroke-opacity: 0.5; stroke-width: 0.5"/>
     <use xlink:href="#m9eb3412cbe" x="540.645658" y="117.990429" style="fill: #4c72b0; fill-opacity: 0.5; stroke: #4c72b0; stroke-opacity: 0.5; stroke-width: 0.5"/>
     <use xlink:href="#m9eb3412cbe" x="545.022689" y="93.080577" style="fill: #4c72b0; fill-opacity: 0.5; stroke: #4c72b0; stroke-opacity: 0.5; stroke-width: 0.5"/>
    </g>
   </g>
   <g id="PolyCollection_1">
    <defs>
     <path id="mb0e06664aa" d="M 108 -186.3442 
L 108 -142.121948 
L 113.797403 -143.643538 
L 119.594805 -145.165127 
L 125.392208 -146.686822 
L 131.18961 -148.171231 
L 136.987013 -149.619922 
L 142.784416 -151.064523 
L 148.581818 -152.508421 
L 154.379221 -154.004976 
L 160.176623 -155.525172 
L 165.974026 -157.045367 
L 171.771429 -158.567341 
L 177.568831 -160.003418 
L 183.366234 -161.488814 
L 189.163636 -163.004439 
L 194.961039 -164.539715 
L 200.758442 -165.981093 
L 206.555844 -167.389381 
L 212.353247 -168.823039 
L 218.150649 -170.31306 
L 223.948052 -171.81934 
L 229.745455 -173.264775 
L 235.542857 -174.697121 
L 241.34026 -176.085692 
L 247.137662 -177.487311 
L 252.935065 -178.943837 
L 258.732468 -180.303177 
L 264.52987 -181.60384 
L 270.327273 -183.018116 
L 276.124675 -184.399885 
L 281.922078 -185.854232 
L 287.719481 -187.273494 
L 293.516883 -188.691652 
L 299.314286 -190.148129 
L 305.111688 -191.629833 
L 310.909091 -193.064799 
L 316.706494 -194.424516 
L 322.503896 -195.808497 
L 328.301299 -197.248077 
L 334.098701 -198.655893 
L 339.896104 -200.031612 
L 345.693506 -201.372544 
L 351.490909 -202.728413 
L 357.288312 -204.084047 
L 363.085714 -205.442231 
L 368.883117 -206.780997 
L 374.680519 -208.182215 
L 380.477922 -209.563903 
L 386.275325 -210.872689 
L 392.072727 -212.227449 
L 397.87013 -213.52766 
L 403.667532 -214.783643 
L 409.464935 -216.073054 
L 415.262338 -217.302643 
L 421.05974 -218.51316 
L 426.857143 -219.801701 
L 432.654545 -221.089917 
L 438.451948 -222.425175 
L 444.249351 -223.688194 
L 450.046753 -224.919309 
L 455.844156 -226.141253 
L 461.641558 -227.386312 
L 467.438961 -228.561695 
L 473.236364 -229.706283 
L 479.033766 -230.838361 
L 484.831169 -232.169462 
L 490.628571 -233.348622 
L 496.425974 -234.601895 
L 502.223377 -235.731836 
L 508.020779 -236.860382 
L 513.818182 -237.954259 
L 519.615584 -238.886111 
L 525.412987 -239.923336 
L 531.21039 -240.923302 
L 537.007792 -241.990709 
L 542.805195 -243.01407 
L 548.602597 -243.892781 
L 554.4 -244.762979 
L 560.197403 -245.694564 
L 565.994805 -246.602605 
L 571.792208 -247.539807 
L 577.58961 -248.561946 
L 583.387013 -249.515501 
L 589.184416 -250.469056 
L 594.981818 -251.427498 
L 600.779221 -252.412924 
L 606.576623 -253.306008 
L 612.374026 -254.069837 
L 618.171429 -255.014082 
L 623.968831 -255.724851 
L 629.766234 -256.618417 
L 635.563636 -257.270692 
L 641.361039 -258.243393 
L 647.158442 -259.161354 
L 652.955844 -259.990809 
L 658.753247 -260.824018 
L 664.550649 -261.66072 
L 670.348052 -262.497422 
L 676.145455 -263.474105 
L 681.942857 -264.171131 
L 681.942857 -294.228469 
L 681.942857 -294.228469 
L 676.145455 -292.767476 
L 670.348052 -291.306483 
L 664.550649 -289.84549 
L 658.753247 -288.384497 
L 652.955844 -286.923504 
L 647.158442 -285.462511 
L 641.361039 -284.001518 
L 635.563636 -282.531544 
L 629.766234 -281.020659 
L 623.968831 -279.509775 
L 618.171429 -277.997246 
L 612.374026 -276.502383 
L 606.576623 -275.031933 
L 600.779221 -273.527715 
L 594.981818 -272.056172 
L 589.184416 -270.626454 
L 583.387013 -269.165913 
L 577.58961 -267.944129 
L 571.792208 -266.488404 
L 565.994805 -264.969568 
L 560.197403 -263.596026 
L 554.4 -262.25182 
L 548.602597 -260.764003 
L 542.805195 -259.233685 
L 537.007792 -257.732828 
L 531.21039 -256.398489 
L 525.412987 -254.843293 
L 519.615584 -253.517581 
L 513.818182 -252.108226 
L 508.020779 -250.681354 
L 502.223377 -249.397283 
L 496.425974 -248.09155 
L 490.628571 -246.593372 
L 484.831169 -245.162238 
L 479.033766 -243.796137 
L 473.236364 -242.548709 
L 467.438961 -241.253404 
L 461.641558 -239.967389 
L 455.844156 -238.874898 
L 450.046753 -237.780548 
L 444.249351 -236.637393 
L 438.451948 -235.392346 
L 432.654545 -234.257274 
L 426.857143 -233.35779 
L 421.05974 -232.419588 
L 415.262338 -231.343267 
L 409.464935 -230.532543 
L 403.667532 -229.690135 
L 397.87013 -228.819799 
L 392.072727 -227.94778 
L 386.275325 -227.028544 
L 380.477922 -225.95641 
L 374.680519 -225.082225 
L 368.883117 -223.98064 
L 363.085714 -223.214925 
L 357.288312 -222.270637 
L 351.490909 -221.451466 
L 345.693506 -220.524442 
L 339.896104 -219.597417 
L 334.098701 -218.670393 
L 328.301299 -217.987369 
L 322.503896 -217.277036 
L 316.706494 -216.43982 
L 310.909091 -215.502397 
L 305.111688 -214.528221 
L 299.314286 -213.774778 
L 293.516883 -212.872435 
L 287.719481 -212.106502 
L 281.922078 -211.158767 
L 276.124675 -210.208717 
L 270.327273 -209.257872 
L 264.52987 -208.34299 
L 258.732468 -207.57794 
L 252.935065 -206.81289 
L 247.137662 -206.047839 
L 241.34026 -205.282789 
L 235.542857 -204.444648 
L 229.745455 -203.576805 
L 223.948052 -202.708961 
L 218.150649 -201.840973 
L 212.353247 -200.971287 
L 206.555844 -200.101602 
L 200.758442 -199.231917 
L 194.961039 -198.362231 
L 189.163636 -197.532238 
L 183.366234 -196.73691 
L 177.568831 -195.941582 
L 171.771429 -195.146254 
L 165.974026 -194.350926 
L 160.176623 -193.555598 
L 154.379221 -192.76027 
L 148.581818 -191.964942 
L 142.784416 -191.169614 
L 136.987013 -190.374286 
L 131.18961 -189.578958 
L 125.392208 -188.78363 
L 119.594805 -187.988302 
L 113.797403 -187.17916 
L 108 -186.3442 
z
" style="stroke: #1a1a1a; stroke-opacity: 0.15"/>
    </defs>
    <g clip-path="url(#pbeac902ebf)">
     <use xlink:href="#mb0e06664aa" x="0" y="360" style="fill: #4c72b0; fill-opacity: 0.15; stroke: #1a1a1a; stroke-opacity: 0.15"/>
    </g>
   </g>
   <g id="line2d_1">
    <path d="M 108 202.737484 
L 113.797403 201.492178 
L 119.594805 200.246872 
L 125.392208 199.001566 
L 131.18961 197.756261 
L 136.987013 196.510955 
L 142.784416 195.265649 
L 148.581818 194.020343 
L 154.379221 192.775038 
L 160.176623 191.529732 
L 165.974026 190.284426 
L 171.771429 189.03912 
L 177.568831 187.793815 
L 183.366234 186.548509 
L 189.163636 185.303203 
L 194.961039 184.057897 
L 200.758442 182.812591 
L 206.555844 181.567286 
L 212.353247 180.32198 
L 218.150649 179.076674 
L 223.948052 177.831368 
L 229.745455 176.586063 
L 235.542857 175.340757 
L 241.34026 174.095451 
L 247.137662 172.850145 
L 252.935065 171.60484 
L 258.732468 170.359534 
L 264.52987 169.114228 
L 270.327273 167.868922 
L 276.124675 166.623617 
L 281.922078 165.378311 
L 287.719481 164.133005 
L 293.516883 162.887699 
L 299.314286 161.642393 
L 305.111688 160.397088 
L 310.909091 159.151782 
L 316.706494 157.906476 
L 322.503896 156.66117 
L 328.301299 155.415865 
L 334.098701 154.170559 
L 339.896104 152.925253 
L 345.693506 151.679947 
L 351.490909 150.434642 
L 357.288312 149.189336 
L 363.085714 147.94403 
L 368.883117 146.698724 
L 374.680519 145.453418 
L 380.477922 144.208113 
L 386.275325 142.962807 
L 392.072727 141.717501 
L 397.87013 140.472195 
L 403.667532 139.22689 
L 409.464935 137.981584 
L 415.262338 136.736278 
L 421.05974 135.490972 
L 426.857143 134.245667 
L 432.654545 133.000361 
L 438.451948 131.755055 
L 444.249351 130.509749 
L 450.046753 129.264444 
L 455.844156 128.019138 
L 461.641558 126.773832 
L 467.438961 125.528526 
L 473.236364 124.28322 
L 479.033766 123.037915 
L 484.831169 121.792609 
L 490.628571 120.547303 
L 496.425974 119.301997 
L 502.223377 118.056692 
L 508.020779 116.811386 
L 513.818182 115.56608 
L 519.615584 114.320774 
L 525.412987 113.075469 
L 531.21039 111.830163 
L 537.007792 110.584857 
L 542.805195 109.339551 
L 548.602597 108.094245 
L 554.4 106.84894 
L 560.197403 105.603634 
L 565.994805 104.358328 
L 571.792208 103.113022 
L 577.58961 101.867717 
L 583.387013 100.622411 
L 589.184416 99.377105 
L 594.981818 98.131799 
L 600.779221 96.886494 
L 606.576623 95.641188 
L 612.374026 94.395882 
L 618.171429 93.150576 
L 623.968831 91.905271 
L 629.766234 90.659965 
L 635.563636 89.414659 
L 641.361039 88.169353 
L 647.158442 86.924047 
L 652.955844 85.678742 
L 658.753247 84.433436 
L 664.550649 83.18813 
L 670.348052 81.942824 
L 676.145455 80.697519 
L 681.942857 79.452213 
" clip-path="url(#pbeac902ebf)" style="fill: none; stroke: #4c72b0; stroke-width: 1.5; stroke-linecap: square"/>
   </g>
   <g id="patch_3">
    <path d="M 108 324 
L 108 36 
" style="fill: none; stroke: #1a1a1a; stroke-linejoin: miter; stroke-linecap: square"/>
   </g>
   <g id="patch_4">
    <path d="M 777.6 324 
L 777.6 36 
" style="fill: none; stroke: #1a1a1a; stroke-linejoin: miter; stroke-linecap: square"/>
   </g>
   <g id="patch_5">
    <path d="M 108 324 
L 777.6 324 
" style="fill: none; stroke: #1a1a1a; stroke-linejoin: miter; stroke-linecap: square"/>
   </g>
   <g id="patch_6">
    <path d="M 108 36 
L 777.6 36 
" style="fill: none; stroke: #1a1a1a; stroke-linejoin: miter; stroke-linecap: square"/>
   </g>
   <g id="matplotlib.axis_1">
    <g id="xtick_1">
     <g id="line2d_2">
      <defs>
       <path id="m79e898b398" d="M 0 0 
L 0 -4 
" style="stroke: #1a1a1a; stroke-width: 0.5"/>
      </defs>
      <g>
       <use xlink:href="#m79e898b398" x="108" y="324" style="fill: #1a1a1a; stroke: #1a1a1a; stroke-width: 0.5"/>
      </g>
     </g>
     <g id="line2d_3">
      <defs>
       <path id="m4777f6313e" d="M 0 0 
L 0 4 
" style="stroke: #1a1a1a; stroke-width: 0.5"/>
      </defs>
      <g>
       <use xlink:href="#m4777f6313e" x="108" y="36" style="fill: #1a1a1a; stroke: #1a1a1a; stroke-width: 0.5"/>
      </g>
     </g>
     <g id="text_1">
      <!-- 3 -->
      <g style="fill: #1a1a1a" transform="translate(104.1825 337.118125)scale(0.12 -0.12)">
       <defs>
        <path id="DejaVuSans-33" d="M 2597 2516 
Q 3050 2419 3304 2112 
Q 3559 1806 3559 1356 
Q 3559 666 3084 287 
Q 2609 -91 1734 -91 
Q 1441 -91 1130 -33 
Q 819 25 488 141 
L 488 750 
Q 750 597 1062 519 
Q 1375 441 1716 441 
Q 2309 441 2620 675 
Q 2931 909 2931 1356 
Q 2931 1769 2642 2001 
Q 2353 2234 1838 2234 
L 1294 2234 
L 1294 2753 
L 1863 2753 
Q 2328 2753 2575 2939 
Q 2822 3125 2822 3475 
Q 2822 3834 2567 4026 
Q 2313 4219 1838 4219 
Q 1578 4219 1281 4162 
Q 984 4106 628 3988 
L 628 4550 
Q 988 4650 1302 4700 
Q 1616 4750 1894 4750 
Q 2613 4750 3031 4423 
Q 3450 4097 3450 3541 
Q 3450 3153 3228 2886 
Q 3006 2619 2597 2516 
z
" transform="scale(0.015625)"/>
       </defs>
       <use xlink:href="#DejaVuSans-33"/>
      </g>
     </g>
    </g>
    <g id="xtick_2">
     <g id="line2d_4">
      <g>
       <use xlink:href="#m79e898b398" x="203.657143" y="324" style="fill: #1a1a1a; stroke: #1a1a1a; stroke-width: 0.5"/>
      </g>
     </g>
     <g id="line2d_5">
      <g>
       <use xlink:href="#m4777f6313e" x="203.657143" y="36" style="fill: #1a1a1a; stroke: #1a1a1a; stroke-width: 0.5"/>
      </g>
     </g>
     <g id="text_2">
      <!-- 4 -->
      <g style="fill: #1a1a1a" transform="translate(199.839643 337.118125)scale(0.12 -0.12)">
       <defs>
        <path id="DejaVuSans-34" d="M 2419 4116 
L 825 1625 
L 2419 1625 
L 2419 4116 
z
M 2253 4666 
L 3047 4666 
L 3047 1625 
L 3713 1625 
L 3713 1100 
L 3047 1100 
L 3047 0 
L 2419 0 
L 2419 1100 
L 313 1100 
L 313 1709 
L 2253 4666 
z
" transform="scale(0.015625)"/>
       </defs>
       <use xlink:href="#DejaVuSans-34"/>
      </g>
     </g>
    </g>
    <g id="xtick_3">
     <g id="line2d_6">
      <g>
       <use xlink:href="#m79e898b398" x="299.314286" y="324" style="fill: #1a1a1a; stroke: #1a1a1a; stroke-width: 0.5"/>
      </g>
     </g>
     <g id="line2d_7">
      <g>
       <use xlink:href="#m4777f6313e" x="299.314286" y="36" style="fill: #1a1a1a; stroke: #1a1a1a; stroke-width: 0.5"/>
      </g>
     </g>
     <g id="text_3">
      <!-- 5 -->
      <g style="fill: #1a1a1a" transform="translate(295.496786 337.118125)scale(0.12 -0.12)">
       <defs>
        <path id="DejaVuSans-35" d="M 691 4666 
L 3169 4666 
L 3169 4134 
L 1269 4134 
L 1269 2991 
Q 1406 3038 1543 3061 
Q 1681 3084 1819 3084 
Q 2600 3084 3056 2656 
Q 3513 2228 3513 1497 
Q 3513 744 3044 326 
Q 2575 -91 1722 -91 
Q 1428 -91 1123 -41 
Q 819 9 494 109 
L 494 744 
Q 775 591 1075 516 
Q 1375 441 1709 441 
Q 2250 441 2565 725 
Q 2881 1009 2881 1497 
Q 2881 1984 2565 2268 
Q 2250 2553 1709 2553 
Q 1456 2553 1204 2497 
Q 953 2441 691 2322 
L 691 4666 
z
" transform="scale(0.015625)"/>
       </defs>
       <use xlink:href="#DejaVuSans-35"/>
      </g>
     </g>
    </g>
    <g id="xtick_4">
     <g id="line2d_8">
      <g>
       <use xlink:href="#m79e898b398" x="394.971429" y="324" style="fill: #1a1a1a; stroke: #1a1a1a; stroke-width: 0.5"/>
      </g>
     </g>
     <g id="line2d_9">
      <g>
       <use xlink:href="#m4777f6313e" x="394.971429" y="36" style="fill: #1a1a1a; stroke: #1a1a1a; stroke-width: 0.5"/>
      </g>
     </g>
     <g id="text_4">
      <!-- 6 -->
      <g style="fill: #1a1a1a" transform="translate(391.153929 337.118125)scale(0.12 -0.12)">
       <defs>
        <path id="DejaVuSans-36" d="M 2113 2584 
Q 1688 2584 1439 2293 
Q 1191 2003 1191 1497 
Q 1191 994 1439 701 
Q 1688 409 2113 409 
Q 2538 409 2786 701 
Q 3034 994 3034 1497 
Q 3034 2003 2786 2293 
Q 2538 2584 2113 2584 
z
M 3366 4563 
L 3366 3988 
Q 3128 4100 2886 4159 
Q 2644 4219 2406 4219 
Q 1781 4219 1451 3797 
Q 1122 3375 1075 2522 
Q 1259 2794 1537 2939 
Q 1816 3084 2150 3084 
Q 2853 3084 3261 2657 
Q 3669 2231 3669 1497 
Q 3669 778 3244 343 
Q 2819 -91 2113 -91 
Q 1303 -91 875 529 
Q 447 1150 447 2328 
Q 447 3434 972 4092 
Q 1497 4750 2381 4750 
Q 2619 4750 2861 4703 
Q 3103 4656 3366 4563 
z
" transform="scale(0.015625)"/>
       </defs>
       <use xlink:href="#DejaVuSans-36"/>
      </g>
     </g>
    </g>
    <g id="xtick_5">
     <g id="line2d_10">
      <g>
       <use xlink:href="#m79e898b398" x="490.628571" y="324" style="fill: #1a1a1a; stroke: #1a1a1a; stroke-width: 0.5"/>
      </g>
     </g>
     <g id="line2d_11">
      <g>
       <use xlink:href="#m4777f6313e" x="490.628571" y="36" style="fill: #1a1a1a; stroke: #1a1a1a; stroke-width: 0.5"/>
      </g>
     </g>
     <g id="text_5">
      <!-- 7 -->
      <g style="fill: #1a1a1a" transform="translate(486.811071 337.118125)scale(0.12 -0.12)">
       <defs>
        <path id="DejaVuSans-37" d="M 525 4666 
L 3525 4666 
L 3525 4397 
L 1831 0 
L 1172 0 
L 2766 4134 
L 525 4134 
L 525 4666 
z
" transform="scale(0.015625)"/>
       </defs>
       <use xlink:href="#DejaVuSans-37"/>
      </g>
     </g>
    </g>
    <g id="xtick_6">
     <g id="line2d_12">
      <g>
       <use xlink:href="#m79e898b398" x="586.285714" y="324" style="fill: #1a1a1a; stroke: #1a1a1a; stroke-width: 0.5"/>
      </g>
     </g>
     <g id="line2d_13">
      <g>
       <use xlink:href="#m4777f6313e" x="586.285714" y="36" style="fill: #1a1a1a; stroke: #1a1a1a; stroke-width: 0.5"/>
      </g>
     </g>
     <g id="text_6">
      <!-- 8 -->
      <g style="fill: #1a1a1a" transform="translate(582.468214 337.118125)scale(0.12 -0.12)">
       <defs>
        <path id="DejaVuSans-38" d="M 2034 2216 
Q 1584 2216 1326 1975 
Q 1069 1734 1069 1313 
Q 1069 891 1326 650 
Q 1584 409 2034 409 
Q 2484 409 2743 651 
Q 3003 894 3003 1313 
Q 3003 1734 2745 1975 
Q 2488 2216 2034 2216 
z
M 1403 2484 
Q 997 2584 770 2862 
Q 544 3141 544 3541 
Q 544 4100 942 4425 
Q 1341 4750 2034 4750 
Q 2731 4750 3128 4425 
Q 3525 4100 3525 3541 
Q 3525 3141 3298 2862 
Q 3072 2584 2669 2484 
Q 3125 2378 3379 2068 
Q 3634 1759 3634 1313 
Q 3634 634 3220 271 
Q 2806 -91 2034 -91 
Q 1263 -91 848 271 
Q 434 634 434 1313 
Q 434 1759 690 2068 
Q 947 2378 1403 2484 
z
M 1172 3481 
Q 1172 3119 1398 2916 
Q 1625 2713 2034 2713 
Q 2441 2713 2670 2916 
Q 2900 3119 2900 3481 
Q 2900 3844 2670 4047 
Q 2441 4250 2034 4250 
Q 1625 4250 1398 4047 
Q 1172 3844 1172 3481 
z
" transform="scale(0.015625)"/>
       </defs>
       <use xlink:href="#DejaVuSans-38"/>
      </g>
     </g>
    </g>
    <g id="xtick_7">
     <g id="line2d_14">
      <g>
       <use xlink:href="#m79e898b398" x="681.942857" y="324" style="fill: #1a1a1a; stroke: #1a1a1a; stroke-width: 0.5"/>
      </g>
     </g>
     <g id="line2d_15">
      <g>
       <use xlink:href="#m4777f6313e" x="681.942857" y="36" style="fill: #1a1a1a; stroke: #1a1a1a; stroke-width: 0.5"/>
      </g>
     </g>
     <g id="text_7">
      <!-- 9 -->
      <g style="fill: #1a1a1a" transform="translate(678.125357 337.118125)scale(0.12 -0.12)">
       <defs>
        <path id="DejaVuSans-39" d="M 703 97 
L 703 672 
Q 941 559 1184 500 
Q 1428 441 1663 441 
Q 2288 441 2617 861 
Q 2947 1281 2994 2138 
Q 2813 1869 2534 1725 
Q 2256 1581 1919 1581 
Q 1219 1581 811 2004 
Q 403 2428 403 3163 
Q 403 3881 828 4315 
Q 1253 4750 1959 4750 
Q 2769 4750 3195 4129 
Q 3622 3509 3622 2328 
Q 3622 1225 3098 567 
Q 2575 -91 1691 -91 
Q 1453 -91 1209 -44 
Q 966 3 703 97 
z
M 1959 2075 
Q 2384 2075 2632 2365 
Q 2881 2656 2881 3163 
Q 2881 3666 2632 3958 
Q 2384 4250 1959 4250 
Q 1534 4250 1286 3958 
Q 1038 3666 1038 3163 
Q 1038 2656 1286 2365 
Q 1534 2075 1959 2075 
z
" transform="scale(0.015625)"/>
       </defs>
       <use xlink:href="#DejaVuSans-39"/>
      </g>
     </g>
    </g>
    <g id="xtick_8">
     <g id="line2d_16">
      <g>
       <use xlink:href="#m79e898b398" x="777.6" y="324" style="fill: #1a1a1a; stroke: #1a1a1a; stroke-width: 0.5"/>
      </g>
     </g>
     <g id="line2d_17">
      <g>
       <use xlink:href="#m4777f6313e" x="777.6" y="36" style="fill: #1a1a1a; stroke: #1a1a1a; stroke-width: 0.5"/>
      </g>
     </g>
     <g id="text_8">
      <!-- 10 -->
      <g style="fill: #1a1a1a" transform="translate(769.965 337.118125)scale(0.12 -0.12)">
       <defs>
        <path id="DejaVuSans-31" d="M 794 531 
L 1825 531 
L 1825 4091 
L 703 3866 
L 703 4441 
L 1819 4666 
L 2450 4666 
L 2450 531 
L 3481 531 
L 3481 0 
L 794 0 
L 794 531 
z
" transform="scale(0.015625)"/>
        <path id="DejaVuSans-30" d="M 2034 4250 
Q 1547 4250 1301 3770 
Q 1056 3291 1056 2328 
Q 1056 1369 1301 889 
Q 1547 409 2034 409 
Q 2525 409 2770 889 
Q 3016 1369 3016 2328 
Q 3016 3291 2770 3770 
Q 2525 4250 2034 4250 
z
M 2034 4750 
Q 2819 4750 3233 4129 
Q 3647 3509 3647 2328 
Q 3647 1150 3233 529 
Q 2819 -91 2034 -91 
Q 1250 -91 836 529 
Q 422 1150 422 2328 
Q 422 3509 836 4129 
Q 1250 4750 2034 4750 
z
" transform="scale(0.015625)"/>
       </defs>
       <use xlink:href="#DejaVuSans-31"/>
       <use xlink:href="#DejaVuSans-30" x="63.623047"/>
      </g>
     </g>
    </g>
    <g id="text_9">
     <!-- Experimental pIC50 -->
     <g style="fill: #1a1a1a" transform="translate(363.259125 355.5555)scale(0.144 -0.144)">
      <defs>
       <path id="DejaVuSans-Bold-45" d="M 588 4666 
L 3834 4666 
L 3834 3756 
L 1791 3756 
L 1791 2888 
L 3713 2888 
L 3713 1978 
L 1791 1978 
L 1791 909 
L 3903 909 
L 3903 0 
L 588 0 
L 588 4666 
z
" transform="scale(0.015625)"/>
       <path id="DejaVuSans-Bold-78" d="M 1422 1791 
L 159 3500 
L 1344 3500 
L 2059 2463 
L 2784 3500 
L 3969 3500 
L 2706 1797 
L 4031 0 
L 2847 0 
L 2059 1106 
L 1281 0 
L 97 0 
L 1422 1791 
z
" transform="scale(0.015625)"/>
       <path id="DejaVuSans-Bold-70" d="M 1656 506 
L 1656 -1331 
L 538 -1331 
L 538 3500 
L 1656 3500 
L 1656 2988 
Q 1888 3294 2169 3439 
Q 2450 3584 2816 3584 
Q 3463 3584 3878 3070 
Q 4294 2556 4294 1747 
Q 4294 938 3878 423 
Q 3463 -91 2816 -91 
Q 2450 -91 2169 54 
Q 1888 200 1656 506 
z
M 2400 2772 
Q 2041 2772 1848 2508 
Q 1656 2244 1656 1747 
Q 1656 1250 1848 986 
Q 2041 722 2400 722 
Q 2759 722 2948 984 
Q 3138 1247 3138 1747 
Q 3138 2247 2948 2509 
Q 2759 2772 2400 2772 
z
" transform="scale(0.015625)"/>
       <path id="DejaVuSans-Bold-65" d="M 4031 1759 
L 4031 1441 
L 1416 1441 
Q 1456 1047 1700 850 
Q 1944 653 2381 653 
Q 2734 653 3104 758 
Q 3475 863 3866 1075 
L 3866 213 
Q 3469 63 3072 -14 
Q 2675 -91 2278 -91 
Q 1328 -91 801 392 
Q 275 875 275 1747 
Q 275 2603 792 3093 
Q 1309 3584 2216 3584 
Q 3041 3584 3536 3087 
Q 4031 2591 4031 1759 
z
M 2881 2131 
Q 2881 2450 2695 2645 
Q 2509 2841 2209 2841 
Q 1884 2841 1681 2658 
Q 1478 2475 1428 2131 
L 2881 2131 
z
" transform="scale(0.015625)"/>
       <path id="DejaVuSans-Bold-72" d="M 3138 2547 
Q 2991 2616 2845 2648 
Q 2700 2681 2553 2681 
Q 2122 2681 1889 2404 
Q 1656 2128 1656 1613 
L 1656 0 
L 538 0 
L 538 3500 
L 1656 3500 
L 1656 2925 
Q 1872 3269 2151 3426 
Q 2431 3584 2822 3584 
Q 2878 3584 2943 3579 
Q 3009 3575 3134 3559 
L 3138 2547 
z
" transform="scale(0.015625)"/>
       <path id="DejaVuSans-Bold-69" d="M 538 3500 
L 1656 3500 
L 1656 0 
L 538 0 
L 538 3500 
z
M 538 4863 
L 1656 4863 
L 1656 3950 
L 538 3950 
L 538 4863 
z
" transform="scale(0.015625)"/>
       <path id="DejaVuSans-Bold-6d" d="M 3781 2919 
Q 3994 3244 4286 3414 
Q 4578 3584 4928 3584 
Q 5531 3584 5847 3212 
Q 6163 2841 6163 2131 
L 6163 0 
L 5038 0 
L 5038 1825 
Q 5041 1866 5042 1909 
Q 5044 1953 5044 2034 
Q 5044 2406 4934 2573 
Q 4825 2741 4581 2741 
Q 4263 2741 4089 2478 
Q 3916 2216 3909 1719 
L 3909 0 
L 2784 0 
L 2784 1825 
Q 2784 2406 2684 2573 
Q 2584 2741 2328 2741 
Q 2006 2741 1831 2477 
Q 1656 2213 1656 1722 
L 1656 0 
L 531 0 
L 531 3500 
L 1656 3500 
L 1656 2988 
Q 1863 3284 2130 3434 
Q 2397 3584 2719 3584 
Q 3081 3584 3359 3409 
Q 3638 3234 3781 2919 
z
" transform="scale(0.015625)"/>
       <path id="DejaVuSans-Bold-6e" d="M 4056 2131 
L 4056 0 
L 2931 0 
L 2931 347 
L 2931 1631 
Q 2931 2084 2911 2256 
Q 2891 2428 2841 2509 
Q 2775 2619 2662 2680 
Q 2550 2741 2406 2741 
Q 2056 2741 1856 2470 
Q 1656 2200 1656 1722 
L 1656 0 
L 538 0 
L 538 3500 
L 1656 3500 
L 1656 2988 
Q 1909 3294 2193 3439 
Q 2478 3584 2822 3584 
Q 3428 3584 3742 3212 
Q 4056 2841 4056 2131 
z
" transform="scale(0.015625)"/>
       <path id="DejaVuSans-Bold-74" d="M 1759 4494 
L 1759 3500 
L 2913 3500 
L 2913 2700 
L 1759 2700 
L 1759 1216 
Q 1759 972 1856 886 
Q 1953 800 2241 800 
L 2816 800 
L 2816 0 
L 1856 0 
Q 1194 0 917 276 
Q 641 553 641 1216 
L 641 2700 
L 84 2700 
L 84 3500 
L 641 3500 
L 641 4494 
L 1759 4494 
z
" transform="scale(0.015625)"/>
       <path id="DejaVuSans-Bold-61" d="M 2106 1575 
Q 1756 1575 1579 1456 
Q 1403 1338 1403 1106 
Q 1403 894 1545 773 
Q 1688 653 1941 653 
Q 2256 653 2472 879 
Q 2688 1106 2688 1447 
L 2688 1575 
L 2106 1575 
z
M 3816 1997 
L 3816 0 
L 2688 0 
L 2688 519 
Q 2463 200 2181 54 
Q 1900 -91 1497 -91 
Q 953 -91 614 226 
Q 275 544 275 1050 
Q 275 1666 698 1953 
Q 1122 2241 2028 2241 
L 2688 2241 
L 2688 2328 
Q 2688 2594 2478 2717 
Q 2269 2841 1825 2841 
Q 1466 2841 1156 2769 
Q 847 2697 581 2553 
L 581 3406 
Q 941 3494 1303 3539 
Q 1666 3584 2028 3584 
Q 2975 3584 3395 3211 
Q 3816 2838 3816 1997 
z
" transform="scale(0.015625)"/>
       <path id="DejaVuSans-Bold-6c" d="M 538 4863 
L 1656 4863 
L 1656 0 
L 538 0 
L 538 4863 
z
" transform="scale(0.015625)"/>
       <path id="DejaVuSans-Bold-20" transform="scale(0.015625)"/>
       <path id="DejaVuSans-Bold-49" d="M 588 4666 
L 1791 4666 
L 1791 0 
L 588 0 
L 588 4666 
z
" transform="scale(0.015625)"/>
       <path id="DejaVuSans-Bold-43" d="M 4288 256 
Q 3956 84 3597 -3 
Q 3238 -91 2847 -91 
Q 1681 -91 1000 561 
Q 319 1213 319 2328 
Q 319 3447 1000 4098 
Q 1681 4750 2847 4750 
Q 3238 4750 3597 4662 
Q 3956 4575 4288 4403 
L 4288 3438 
Q 3953 3666 3628 3772 
Q 3303 3878 2944 3878 
Q 2300 3878 1931 3465 
Q 1563 3053 1563 2328 
Q 1563 1606 1931 1193 
Q 2300 781 2944 781 
Q 3303 781 3628 887 
Q 3953 994 4288 1222 
L 4288 256 
z
" transform="scale(0.015625)"/>
       <path id="DejaVuSans-Bold-35" d="M 678 4666 
L 3669 4666 
L 3669 3781 
L 1638 3781 
L 1638 3059 
Q 1775 3097 1914 3117 
Q 2053 3138 2203 3138 
Q 3056 3138 3531 2711 
Q 4006 2284 4006 1522 
Q 4006 766 3489 337 
Q 2972 -91 2053 -91 
Q 1656 -91 1267 -14 
Q 878 63 494 219 
L 494 1166 
Q 875 947 1217 837 
Q 1559 728 1863 728 
Q 2300 728 2551 942 
Q 2803 1156 2803 1522 
Q 2803 1891 2551 2103 
Q 2300 2316 1863 2316 
Q 1603 2316 1309 2248 
Q 1016 2181 678 2041 
L 678 4666 
z
" transform="scale(0.015625)"/>
       <path id="DejaVuSans-Bold-30" d="M 2944 2338 
Q 2944 3213 2780 3570 
Q 2616 3928 2228 3928 
Q 1841 3928 1675 3570 
Q 1509 3213 1509 2338 
Q 1509 1453 1675 1090 
Q 1841 728 2228 728 
Q 2613 728 2778 1090 
Q 2944 1453 2944 2338 
z
M 4147 2328 
Q 4147 1169 3647 539 
Q 3147 -91 2228 -91 
Q 1306 -91 806 539 
Q 306 1169 306 2328 
Q 306 3491 806 4120 
Q 1306 4750 2228 4750 
Q 3147 4750 3647 4120 
Q 4147 3491 4147 2328 
z
" transform="scale(0.015625)"/>
      </defs>
      <use xlink:href="#DejaVuSans-Bold-45"/>
      <use xlink:href="#DejaVuSans-Bold-78" x="68.310547"/>
      <use xlink:href="#DejaVuSans-Bold-70" x="132.8125"/>
      <use xlink:href="#DejaVuSans-Bold-65" x="204.394531"/>
      <use xlink:href="#DejaVuSans-Bold-72" x="272.216797"/>
      <use xlink:href="#DejaVuSans-Bold-69" x="321.533203"/>
      <use xlink:href="#DejaVuSans-Bold-6d" x="355.810547"/>
      <use xlink:href="#DejaVuSans-Bold-65" x="460.009766"/>
      <use xlink:href="#DejaVuSans-Bold-6e" x="527.832031"/>
      <use xlink:href="#DejaVuSans-Bold-74" x="599.023438"/>
      <use xlink:href="#DejaVuSans-Bold-61" x="646.826172"/>
      <use xlink:href="#DejaVuSans-Bold-6c" x="714.306641"/>
      <use xlink:href="#DejaVuSans-Bold-20" x="748.583984"/>
      <use xlink:href="#DejaVuSans-Bold-70" x="783.398438"/>
      <use xlink:href="#DejaVuSans-Bold-49" x="854.980469"/>
      <use xlink:href="#DejaVuSans-Bold-43" x="892.1875"/>
      <use xlink:href="#DejaVuSans-Bold-35" x="965.576172"/>
      <use xlink:href="#DejaVuSans-Bold-30" x="1035.15625"/>
     </g>
    </g>
   </g>
   <g id="matplotlib.axis_2">
    <g id="ytick_1">
     <g id="line2d_18">
      <defs>
       <path id="m8719262713" d="M 0 0 
L 4 0 
" style="stroke: #1a1a1a; stroke-width: 0.5"/>
      </defs>
      <g>
       <use xlink:href="#m8719262713" x="108" y="324" style="fill: #1a1a1a; stroke: #1a1a1a; stroke-width: 0.5"/>
      </g>
     </g>
     <g id="line2d_19">
      <defs>
       <path id="mb7223f85c7" d="M 0 0 
L -4 0 
" style="stroke: #1a1a1a; stroke-width: 0.5"/>
      </defs>
      <g>
       <use xlink:href="#mb7223f85c7" x="777.6" y="324" style="fill: #1a1a1a; stroke: #1a1a1a; stroke-width: 0.5"/>
      </g>
     </g>
     <g id="text_10">
      <!-- 0 -->
      <g style="fill: #1a1a1a" transform="translate(96.365 327.31125)scale(0.12 -0.12)">
       <use xlink:href="#DejaVuSans-30"/>
      </g>
     </g>
    </g>
    <g id="ytick_2">
     <g id="line2d_20">
      <g>
       <use xlink:href="#m8719262713" x="108" y="266.4" style="fill: #1a1a1a; stroke: #1a1a1a; stroke-width: 0.5"/>
      </g>
     </g>
     <g id="line2d_21">
      <g>
       <use xlink:href="#mb7223f85c7" x="777.6" y="266.4" style="fill: #1a1a1a; stroke: #1a1a1a; stroke-width: 0.5"/>
      </g>
     </g>
     <g id="text_11">
      <!-- 2 -->
      <g style="fill: #1a1a1a" transform="translate(96.365 269.71125)scale(0.12 -0.12)">
       <defs>
        <path id="DejaVuSans-32" d="M 1228 531 
L 3431 531 
L 3431 0 
L 469 0 
L 469 531 
Q 828 903 1448 1529 
Q 2069 2156 2228 2338 
Q 2531 2678 2651 2914 
Q 2772 3150 2772 3378 
Q 2772 3750 2511 3984 
Q 2250 4219 1831 4219 
Q 1534 4219 1204 4116 
Q 875 4013 500 3803 
L 500 4441 
Q 881 4594 1212 4672 
Q 1544 4750 1819 4750 
Q 2544 4750 2975 4387 
Q 3406 4025 3406 3419 
Q 3406 3131 3298 2873 
Q 3191 2616 2906 2266 
Q 2828 2175 2409 1742 
Q 1991 1309 1228 531 
z
" transform="scale(0.015625)"/>
       </defs>
       <use xlink:href="#DejaVuSans-32"/>
      </g>
     </g>
    </g>
    <g id="ytick_3">
     <g id="line2d_22">
      <g>
       <use xlink:href="#m8719262713" x="108" y="208.8" style="fill: #1a1a1a; stroke: #1a1a1a; stroke-width: 0.5"/>
      </g>
     </g>
     <g id="line2d_23">
      <g>
       <use xlink:href="#mb7223f85c7" x="777.6" y="208.8" style="fill: #1a1a1a; stroke: #1a1a1a; stroke-width: 0.5"/>
      </g>
     </g>
     <g id="text_12">
      <!-- 4 -->
      <g style="fill: #1a1a1a" transform="translate(96.365 212.11125)scale(0.12 -0.12)">
       <use xlink:href="#DejaVuSans-34"/>
      </g>
     </g>
    </g>
    <g id="ytick_4">
     <g id="line2d_24">
      <g>
       <use xlink:href="#m8719262713" x="108" y="151.2" style="fill: #1a1a1a; stroke: #1a1a1a; stroke-width: 0.5"/>
      </g>
     </g>
     <g id="line2d_25">
      <g>
       <use xlink:href="#mb7223f85c7" x="777.6" y="151.2" style="fill: #1a1a1a; stroke: #1a1a1a; stroke-width: 0.5"/>
      </g>
     </g>
     <g id="text_13">
      <!-- 6 -->
      <g style="fill: #1a1a1a" transform="translate(96.365 154.51125)scale(0.12 -0.12)">
       <use xlink:href="#DejaVuSans-36"/>
      </g>
     </g>
    </g>
    <g id="ytick_5">
     <g id="line2d_26">
      <g>
       <use xlink:href="#m8719262713" x="108" y="93.6" style="fill: #1a1a1a; stroke: #1a1a1a; stroke-width: 0.5"/>
      </g>
     </g>
     <g id="line2d_27">
      <g>
       <use xlink:href="#mb7223f85c7" x="777.6" y="93.6" style="fill: #1a1a1a; stroke: #1a1a1a; stroke-width: 0.5"/>
      </g>
     </g>
     <g id="text_14">
      <!-- 8 -->
      <g style="fill: #1a1a1a" transform="translate(96.365 96.91125)scale(0.12 -0.12)">
       <use xlink:href="#DejaVuSans-38"/>
      </g>
     </g>
    </g>
    <g id="ytick_6">
     <g id="line2d_28">
      <g>
       <use xlink:href="#m8719262713" x="108" y="36" style="fill: #1a1a1a; stroke: #1a1a1a; stroke-width: 0.5"/>
      </g>
     </g>
     <g id="line2d_29">
      <g>
       <use xlink:href="#mb7223f85c7" x="777.6" y="36" style="fill: #1a1a1a; stroke: #1a1a1a; stroke-width: 0.5"/>
      </g>
     </g>
     <g id="text_15">
      <!-- 10 -->
      <g style="fill: #1a1a1a" transform="translate(88.73 39.31125)scale(0.12 -0.12)">
       <use xlink:href="#DejaVuSans-31"/>
       <use xlink:href="#DejaVuSans-30" x="63.623047"/>
      </g>
     </g>
    </g>
    <g id="text_16">
     <!-- Predicted pIC50 -->
     <g style="fill: #1a1a1a" transform="translate(80.73525 244.722375)rotate(-90)scale(0.144 -0.144)">
      <defs>
       <path id="DejaVuSans-Bold-50" d="M 588 4666 
L 2584 4666 
Q 3475 4666 3951 4270 
Q 4428 3875 4428 3144 
Q 4428 2409 3951 2014 
Q 3475 1619 2584 1619 
L 1791 1619 
L 1791 0 
L 588 0 
L 588 4666 
z
M 1791 3794 
L 1791 2491 
L 2456 2491 
Q 2806 2491 2997 2661 
Q 3188 2831 3188 3144 
Q 3188 3456 2997 3625 
Q 2806 3794 2456 3794 
L 1791 3794 
z
" transform="scale(0.015625)"/>
       <path id="DejaVuSans-Bold-64" d="M 2919 2988 
L 2919 4863 
L 4044 4863 
L 4044 0 
L 2919 0 
L 2919 506 
Q 2688 197 2409 53 
Q 2131 -91 1766 -91 
Q 1119 -91 703 423 
Q 288 938 288 1747 
Q 288 2556 703 3070 
Q 1119 3584 1766 3584 
Q 2128 3584 2408 3439 
Q 2688 3294 2919 2988 
z
M 2181 722 
Q 2541 722 2730 984 
Q 2919 1247 2919 1747 
Q 2919 2247 2730 2509 
Q 2541 2772 2181 2772 
Q 1825 2772 1636 2509 
Q 1447 2247 1447 1747 
Q 1447 1247 1636 984 
Q 1825 722 2181 722 
z
" transform="scale(0.015625)"/>
       <path id="DejaVuSans-Bold-63" d="M 3366 3391 
L 3366 2478 
Q 3138 2634 2908 2709 
Q 2678 2784 2431 2784 
Q 1963 2784 1702 2511 
Q 1441 2238 1441 1747 
Q 1441 1256 1702 982 
Q 1963 709 2431 709 
Q 2694 709 2930 787 
Q 3166 866 3366 1019 
L 3366 103 
Q 3103 6 2833 -42 
Q 2563 -91 2291 -91 
Q 1344 -91 809 395 
Q 275 881 275 1747 
Q 275 2613 809 3098 
Q 1344 3584 2291 3584 
Q 2566 3584 2833 3536 
Q 3100 3488 3366 3391 
z
" transform="scale(0.015625)"/>
      </defs>
      <use xlink:href="#DejaVuSans-Bold-50"/>
      <use xlink:href="#DejaVuSans-Bold-72" x="73.291016"/>
      <use xlink:href="#DejaVuSans-Bold-65" x="122.607422"/>
      <use xlink:href="#DejaVuSans-Bold-64" x="190.429688"/>
      <use xlink:href="#DejaVuSans-Bold-69" x="262.011719"/>
      <use xlink:href="#DejaVuSans-Bold-63" x="296.289062"/>
      <use xlink:href="#DejaVuSans-Bold-74" x="355.566406"/>
      <use xlink:href="#DejaVuSans-Bold-65" x="403.369141"/>
      <use xlink:href="#DejaVuSans-Bold-64" x="471.191406"/>
      <use xlink:href="#DejaVuSans-Bold-20" x="542.773438"/>
      <use xlink:href="#DejaVuSans-Bold-70" x="577.587891"/>
      <use xlink:href="#DejaVuSans-Bold-49" x="649.169922"/>
      <use xlink:href="#DejaVuSans-Bold-43" x="686.376953"/>
      <use xlink:href="#DejaVuSans-Bold-35" x="759.765625"/>
      <use xlink:href="#DejaVuSans-Bold-30" x="829.345703"/>
     </g>
    </g>
   </g>
  </g>
 </g>
 <defs>
  <clipPath id="pbeac902ebf">
   <rect x="108" y="36" width="669.6" height="288"/>
  </clipPath>
 </defs>
</svg>
